<svg width="16" height="26" viewBox="0 0 16 26" fill="none" xmlns="http://www.w3.org/2000/svg">
<path d="M15.6013 8.02607C15.3418 8.2543 14.9358 8.27504 14.6498 8.08831L14.5678 8.02607L8.26394 2.48093L1.96009 8.02607C1.70065 8.2543 1.29467 8.27504 1.00858 8.08831L0.92662 8.02607C0.667178 7.79784 0.643592 7.4407 0.855863 7.18903L0.92662 7.11693L7.74721 1.11693C8.00665 0.888703 8.41263 0.867955 8.69872 1.05469L8.78068 1.11693L15.6013 7.11693C15.8867 7.36798 15.8867 7.77502 15.6013 8.02607Z" fill="#646464"/>
<path d="M0.92632 17.117C1.18576 16.8888 1.59175 16.868 1.87783 17.0548L1.95979 17.117L8.26364 22.6621L14.5675 17.117C14.8269 16.8888 15.2329 16.868 15.519 17.0548L15.601 17.117C15.8604 17.3452 15.884 17.7024 15.6717 17.954L15.601 18.0261L8.78038 24.0261C8.52094 24.2544 8.11495 24.2751 7.82887 24.0884L7.74691 24.0261L0.92632 18.0261C0.640934 17.7751 0.640934 17.3681 0.92632 17.117Z" fill="#646464"/>
</svg>
