<svg width="30" height="28" viewBox="0 0 30 28" fill="none" xmlns="http://www.w3.org/2000/svg">
<path fill-rule="evenodd" clip-rule="evenodd" d="M0.848267 0.873449L2.35194 0.32666L3.9059 4.60005H29.8247L26.2247 19.0001H7.43976L0.848267 0.873449ZM4.48772 6.20005L8.56044 17.4001H24.9755L27.7755 6.20005H4.48772Z" fill="#181818"/>
<path d="M10.4 24.6C9.51637 24.6 8.80002 25.3164 8.80002 26.2C8.80002 27.0837 9.51637 27.8 10.4 27.8C11.2837 27.8 12 27.0837 12 26.2C12 25.3164 11.2837 24.6 10.4 24.6Z" fill="#181818"/>
<path d="M22.4 24.6C21.5164 24.6 20.8 25.3164 20.8 26.2C20.8 27.0837 21.5164 27.8 22.4 27.8C23.2837 27.8 24 27.0837 24 26.2C24 25.3164 23.2837 24.6 22.4 24.6Z" fill="#181818"/>
</svg>
