<svg width="28" height="28" viewBox="0 0 28 28" fill="none" xmlns="http://www.w3.org/2000/svg">
<g clip-path="url(#clip0_265_6493)">
<path d="M0.552344 0.114846C0.191406 0.300784 0 0.634377 0 1.08281C0 1.60235 0.125781 1.78281 0.820312 2.28594C1.1375 2.51016 1.68984 2.99688 2.05078 3.35781C3.27031 4.58828 4.08516 5.96641 4.56641 7.62891C4.88359 8.7336 4.87812 8.64063 4.92187 13.4258C4.96016 17.7078 4.96562 17.8719 5.08047 18.3969C5.6 20.7484 7.25156 22.5969 9.48828 23.3242C10.4125 23.625 10.4344 23.625 15.7773 23.625C19.9719 23.625 20.7867 23.6141 21.1969 23.543C23.5484 23.1328 25.5227 21.4102 26.2664 19.1133C26.3484 18.8727 26.7586 17.2867 27.1906 15.5859L27.9672 12.4961L27.9727 11.5664C27.9727 10.757 27.9562 10.582 27.8469 10.1992C27.568 9.24219 27.0977 8.43828 26.3922 7.73281C25.7031 7.04375 24.9977 6.62266 24.057 6.33281L23.6523 6.2125L16.4609 6.17969C9.84375 6.14688 9.23672 6.13594 8.85937 6.04844C7.94609 5.83516 7.14766 5.47969 6.45859 4.9875C5.85703 4.56094 5.66562 4.3586 5.26641 3.7461C4.375 2.37891 3.13906 1.11016 1.89219 0.278909C1.55859 0.0546899 1.48203 0.0273462 1.15391 0.0109399C0.864062 2.41399e-06 0.74375 0.0164087 0.552344 0.114846ZM7.62891 8.03906C8.72812 8.37813 8.52031 8.36719 15.7992 8.36719C19.5508 8.36719 22.6406 8.38906 22.8922 8.41641C23.4773 8.4875 23.8984 8.64063 24.3578 8.95235C25.2383 9.55391 25.7578 10.5328 25.7578 11.5719C25.7578 11.9438 25.643 12.4633 24.9375 15.2578C24.243 18.0305 24.0898 18.5773 23.8984 18.9602C23.3242 20.1195 22.3398 20.918 21.0273 21.2844L20.5898 21.4102H15.832C10.4125 21.4102 10.6477 21.4266 9.65234 20.9453C8.71172 20.4859 8.11562 19.8898 7.65625 18.9492C7.18594 17.9758 7.20234 18.1781 7.15859 13.1797C7.13125 9.43906 7.10937 8.71172 7.03828 8.33985C6.92344 7.79297 6.92344 7.79844 7.04375 7.84766C7.09297 7.86953 7.36094 7.95703 7.62891 8.03906Z" fill="#333333"/>
<path d="M9.95313 10.6424C9.84922 10.6861 9.71797 10.7682 9.66328 10.8174C9.24766 11.1947 9.24766 12.1025 9.66328 12.4799C9.96406 12.7533 9.70703 12.7424 16.543 12.7424C22.7992 12.7424 22.925 12.7424 23.1328 12.633C23.9039 12.2392 23.9039 11.058 23.1328 10.6642C22.925 10.5549 22.8047 10.5549 16.532 10.5549C10.9703 10.5603 10.1227 10.5713 9.95313 10.6424Z" fill="#333333"/>
<path d="M9.36797 25.2712C8.67344 25.3969 8.26328 25.9001 8.25781 26.6329C8.25781 27.5024 8.8375 28.0438 9.72344 27.9891C10.2102 27.9618 10.5602 27.7649 10.8008 27.3766C10.9484 27.1305 10.9648 27.0649 10.9648 26.6329C10.9648 26.2008 10.9484 26.1352 10.8008 25.8891C10.5109 25.4298 9.93125 25.1782 9.36797 25.2712Z" fill="#333333"/>
<path d="M20.2508 25.2712C19.5562 25.3969 19.1461 25.9001 19.1406 26.6329C19.1406 27.5024 19.7203 28.0438 20.6062 27.9891C21.093 27.9618 21.443 27.7649 21.6836 27.3766C21.8312 27.1305 21.8477 27.0649 21.8477 26.6329C21.8477 26.2008 21.8312 26.1352 21.6836 25.8891C21.3937 25.4298 20.8141 25.1782 20.2508 25.2712Z" fill="#333333"/>
</g>
<defs>
<clipPath id="clip0_265_6493">
<rect width="28" height="28" fill="white"/>
</clipPath>
</defs>
</svg>
