<svg width="17" height="16" viewBox="0 0 17 16" fill="none" xmlns="http://www.w3.org/2000/svg">
<path d="M9.74218 8.0825L6.08518 4.4255C6.01209 4.35894 5.9531 4.27839 5.91169 4.18863C5.87029 4.09887 5.84732 4.00171 5.84413 3.90291C5.84095 3.80411 5.85762 3.70568 5.89316 3.61343C5.92869 3.52119 5.98238 3.43702 6.05103 3.36589C6.11968 3.29476 6.2019 3.23813 6.29282 3.19935C6.38375 3.16057 6.48153 3.14043 6.58038 3.14011C6.67924 3.13979 6.77715 3.15931 6.86832 3.19751C6.95949 3.23571 7.04207 3.29181 7.11118 3.3625L7.12918 3.3805L11.3092 7.5595C11.4477 7.69808 11.5256 7.88603 11.5256 8.082C11.5256 8.27797 11.4477 8.46591 11.3092 8.6045L7.13018 12.7835C7.06274 12.8533 6.98222 12.9091 6.89321 12.9478C6.8042 12.9865 6.70844 13.0073 6.61141 13.0089C6.51437 13.0106 6.41795 12.9931 6.32766 12.9575C6.23737 12.922 6.15498 12.8689 6.08518 12.8015C6.01538 12.7341 5.95955 12.6535 5.92087 12.5645C5.88219 12.4755 5.86142 12.3798 5.85975 12.2827C5.85808 12.1857 5.87554 12.0893 5.91113 11.999C5.94672 11.9087 5.99974 11.8263 6.06718 11.7565L6.08518 11.7385L9.74218 8.0825Z" fill="#0077B6" stroke="#0077B6" stroke-width="0.5"/>
</svg>
