<svg width="32" height="32" viewBox="0 0 32 32" fill="none" xmlns="http://www.w3.org/2000/svg">
<path fill-rule="evenodd" clip-rule="evenodd" d="M8.3383 4.08826C5.38205 4.60698 2.40004 7.47005 2.40005 12.8682C2.40005 14.8154 3.21305 16.8389 4.51813 18.8202C5.81893 20.795 7.56787 22.6659 9.34069 24.2913C11.1103 25.9138 12.8835 27.2733 14.216 28.2279C14.8815 28.7047 15.4354 29.0792 15.8216 29.3338C15.8858 29.3762 15.9454 29.4152 16 29.4508C16.0547 29.4152 16.1143 29.3762 16.1785 29.3338C16.5647 29.0792 17.1186 28.7047 17.7841 28.2279C19.1166 27.2733 20.8898 25.9138 22.6594 24.2913C24.4322 22.6659 26.1812 20.795 27.482 18.8202C28.7871 16.8389 29.6 14.8154 29.6 12.8682C29.6 7.47005 26.618 4.60698 23.6618 4.08826C22.1649 3.82562 20.639 4.14808 19.4 5.06225C18.1656 5.97304 17.1607 7.51318 16.7896 9.78329H15.2105C14.8394 7.51318 13.8345 5.97304 12.6001 5.06225C11.361 4.14808 9.83517 3.82562 8.3383 4.08826ZM16 30.4C15.5804 31.081 15.5802 31.0809 15.5799 31.0808L15.5791 31.0803L15.5766 31.0787L15.5676 31.0731L15.5343 31.0524C15.5054 31.0343 15.4633 31.0078 15.4089 30.9732C15.3 30.9039 15.1417 30.802 14.941 30.6697C14.5397 30.4052 13.9686 30.0189 13.2841 29.5285C11.9166 28.5488 10.0898 27.1488 8.25941 25.4706C6.43223 23.7954 4.58117 21.8245 3.18196 19.7003C1.78705 17.5827 0.800049 15.2502 0.800049 12.8682C0.800039 6.82412 4.21803 3.18678 8.06178 2.51234C9.96492 2.17841 11.939 2.58618 13.55 3.77476C14.5586 4.51889 15.4033 5.55268 16.0001 6.86274C16.5968 5.55268 17.4415 4.5189 18.4501 3.77476C20.061 2.58619 22.0352 2.17841 23.9383 2.51234C27.782 3.18678 31.2 6.82412 31.2 12.8682C31.2 15.2502 30.213 17.5827 28.8181 19.7003C27.4189 21.8245 25.5679 23.7954 23.7407 25.4706C21.9103 27.1488 20.0835 28.5488 18.716 29.5285C18.0315 30.0189 17.4604 30.4052 17.0591 30.6697C16.8584 30.802 16.7001 30.9039 16.5912 30.9732C16.5368 31.0078 16.4947 31.0343 16.4658 31.0524L16.4325 31.0731L16.4235 31.0787L16.421 31.0803L16.4202 31.0808C16.4199 31.0809 16.4197 31.081 16 30.4ZM16 30.4L16.4197 31.081L16 31.3397L15.5804 31.081L16 30.4Z" fill="#181818"/>
</svg>
