<svg width="18" height="18" viewBox="0 0 18 18" fill="none" xmlns="http://www.w3.org/2000/svg">
<path fill-rule="evenodd" clip-rule="evenodd" d="M2.46654 3.06589L2.52095 3.00903C3.96652 1.56333 4.90788 1.18013 5.9123 1.75772C6.20122 1.92386 6.47209 2.15642 6.84041 2.53051L7.97018 3.70203C8.5942 4.38295 8.73606 5.03609 8.53287 5.80099L8.50488 5.90225L8.47381 6.00294L8.32278 6.44606C7.99952 7.43979 8.13448 8.00046 9.2846 9.15029C10.4806 10.346 11.0389 10.4438 12.1093 10.0698L12.3001 10.0035L12.5308 9.92856L12.6317 9.90054C13.4447 9.68363 14.1315 9.85673 14.8599 10.5846L15.7702 11.4639L16.0382 11.7274C16.3352 12.0304 16.5316 12.2704 16.6766 12.5242C17.2506 13.5283 16.867 14.4691 15.3797 15.9508L15.2383 16.0942C15.0162 16.3082 14.8087 16.4615 14.504 16.6062C13.9924 16.8491 13.388 16.9407 12.6856 16.843C10.955 16.6023 8.76012 15.2368 5.97891 12.4563C5.75251 12.23 5.53568 12.008 5.32819 11.7904L4.92561 11.3607C1.15322 7.26213 0.820416 4.74441 2.36638 3.16538L2.46654 3.06589ZM5.92981 3.21069C5.68546 2.9698 5.50797 2.82295 5.35149 2.73297C5.00534 2.53392 4.63162 2.61806 3.93997 3.21336L3.72265 3.40751C3.68474 3.4425 3.64596 3.47882 3.60629 3.51651L3.35708 3.75923L3.33463 3.78729L3.16568 3.95702C2.75742 4.37403 2.56403 4.88298 2.73068 5.75825C3.00413 7.19452 4.25581 9.1429 6.7743 11.6607C9.39846 14.2842 11.3979 15.5281 12.8406 15.7287C13.6817 15.8457 14.1107 15.642 14.5482 15.1938L14.8818 14.8571C15.0383 14.6934 15.1719 14.545 15.2848 14.4094L15.4388 14.2154C15.8323 13.6913 15.8682 13.3769 15.6999 13.0825C15.6359 12.9704 15.5428 12.8476 15.4072 12.6975L15.2232 12.5033L15.1144 12.3943L13.966 11.2854C13.5822 10.9315 13.3199 10.8813 12.9217 10.9875L12.8068 11.0206L12.3311 11.1821C10.951 11.6278 9.95535 11.4117 8.4892 9.94588C6.97072 8.42779 6.79263 7.41403 7.30142 5.95438L7.33406 5.86058L7.42431 5.58865L7.46867 5.41532C7.54735 5.0381 7.45753 4.77508 7.05202 4.3695L6.99636 4.3134L5.92981 3.21069Z" fill="white"/>
</svg>
