<svg width="24" height="25" viewBox="0 0 24 25" fill="none" xmlns="http://www.w3.org/2000/svg">
<path d="M22.2953 7.4983H22.2951L20.7107 3.2405C20.6032 2.95426 20.4112 2.70751 20.1601 2.53303C19.909 2.35855 19.6107 2.2646 19.3049 2.26367H4.69476C4.38898 2.2646 4.09073 2.35856 3.83963 2.53306C3.58852 2.70755 3.39647 2.95433 3.28898 3.24059L1.7046 7.49839C1.50773 8.02869 1.48898 8.59152 1.65187 9.08323C1.79558 9.51743 2.03688 9.91291 2.35726 10.2393C2.67764 10.5657 3.06856 10.8143 3.50001 10.9661V19.7636C3.50084 20.4263 3.76449 21.0617 4.23314 21.5304C4.70179 21.999 5.33717 22.2627 5.99995 22.2635H17.9999C18.6627 22.2627 19.2981 21.9991 19.7668 21.5304C20.2354 21.0617 20.4991 20.4263 20.4999 19.7636V10.966C20.9314 10.8142 21.3223 10.5656 21.6427 10.2392C21.9631 9.91282 22.2044 9.51734 22.3481 9.08314C22.5112 8.59142 22.4924 8.02859 22.2953 7.4983ZM16.4467 7.00564C16.4821 7.20634 16.5 7.40976 16.4999 7.61356V8.13856C16.5012 8.40202 16.4504 8.66313 16.3505 8.9069C16.2506 9.15067 16.1034 9.3723 15.9176 9.55904C15.7318 9.74579 15.5108 9.89397 15.2676 9.99509C15.0243 10.0962 14.7634 10.1483 14.5 10.1483C14.2365 10.1483 13.9756 10.0962 13.7323 9.99509C13.4891 9.89397 13.2682 9.74579 13.0823 9.55904C12.8965 9.3723 12.7494 9.15067 12.6494 8.9069C12.5495 8.66313 12.4987 8.40202 12.5 8.13856V3.26356H15.7863L16.4467 7.00564ZM7.49995 7.61356C7.49991 7.40968 7.51771 7.20619 7.55315 7.00541L8.21362 3.26356H11.5V8.13856C11.5 8.40121 11.4482 8.66128 11.3477 8.90394C11.2472 9.14659 11.0999 9.36707 10.9142 9.55279C10.7285 9.73851 10.508 9.88583 10.2653 9.98634C10.0227 10.0868 9.76261 10.1386 9.49996 10.1386C9.23732 10.1386 8.97724 10.0868 8.73459 9.98634C8.49194 9.88583 8.27146 9.73851 8.08574 9.55279C7.90002 9.36707 7.7527 9.14659 7.65219 8.90394C7.55168 8.66128 7.49995 8.40121 7.49995 8.13856V7.61356ZM2.60104 8.76847C2.50926 8.49191 2.52388 8.16458 2.64182 7.84686L4.2262 3.5893C4.26205 3.49386 4.3261 3.41159 4.40982 3.35341C4.49355 3.29524 4.59299 3.26392 4.69495 3.26361H7.19807L6.56831 6.83183C6.52282 7.09 6.49996 7.35165 6.49996 7.6138V8.13856C6.49989 8.61375 6.33067 9.07339 6.0226 9.43518C5.71452 9.79697 5.28772 10.0373 4.81862 10.1131C4.34951 10.1888 3.86875 10.0952 3.46242 9.8488C3.05609 9.60243 2.75074 9.21946 2.60104 8.76847ZM19.4999 19.7636C19.4995 20.1613 19.3413 20.5425 19.0601 20.8237C18.7789 21.105 18.3976 21.2631 17.9999 21.2636H5.99995C5.60225 21.2631 5.22098 21.105 4.93977 20.8237C4.65856 20.5425 4.50038 20.1613 4.49995 19.7636V11.1386C4.99515 11.1384 5.4826 11.0156 5.91882 10.7813C6.35504 10.5469 6.72646 10.2081 6.99993 9.79531C7.27328 10.2083 7.64467 10.5471 8.08093 10.7815C8.51718 11.0159 9.0047 11.1386 9.49994 11.1386C9.99518 11.1386 10.4827 11.0159 10.919 10.7815C11.3552 10.5471 11.7266 10.2083 11.9999 9.79531C12.2733 10.2083 12.6447 10.5471 13.0809 10.7815C13.5172 11.0159 14.0047 11.1386 14.5 11.1386C14.9952 11.1386 15.4827 11.0159 15.919 10.7815C16.3552 10.5471 16.7266 10.2083 17 9.79531C17.2734 10.2081 17.6449 10.5469 18.0811 10.7813C18.5173 11.0156 19.0047 11.1384 19.4999 11.1386V19.7636ZM21.3989 8.76847C21.2492 9.21946 20.9438 9.60243 20.5375 9.8488C20.1311 10.0952 19.6504 10.1888 19.1813 10.1131C18.7122 10.0373 18.2854 9.79697 17.9773 9.43518C17.6692 9.07339 17.5 8.61375 17.4999 8.13856V7.61356C17.4999 7.35141 17.4771 7.08977 17.4316 6.83159L16.8018 3.26356H19.3049C19.4069 3.26387 19.5063 3.29517 19.59 3.35332C19.6738 3.41146 19.7378 3.4937 19.7737 3.58911L21.3577 7.84667C21.476 8.16458 21.4907 8.49181 21.3989 8.76847Z" fill="#0077B6"/>
<path d="M16.1802 14.4851L13.7063 13.9494L12.4322 11.7621C12.3882 11.6865 12.3251 11.6238 12.2493 11.5802C12.1735 11.5366 12.0875 11.5137 12.0001 11.5137C11.9126 11.5137 11.8267 11.5366 11.7509 11.5802C11.675 11.6238 11.612 11.6865 11.568 11.7621L10.2938 13.9494L7.81969 14.4851C7.73419 14.5036 7.65503 14.5442 7.59012 14.6028C7.52522 14.6614 7.47683 14.7361 7.44979 14.8193C7.42275 14.9025 7.418 14.9913 7.43602 15.0769C7.45405 15.1625 7.49421 15.2419 7.5525 15.3071L9.23953 17.1949L8.98439 19.7134C8.9756 19.8004 8.98977 19.8882 9.02551 19.968C9.06125 20.0479 9.11729 20.1169 9.18806 20.1683C9.25882 20.2197 9.34182 20.2516 9.42878 20.2609C9.51574 20.2702 9.60361 20.2565 9.68363 20.2212L12 19.2004L14.3165 20.2211C14.3965 20.2564 14.4844 20.2701 14.5713 20.2608C14.6583 20.2515 14.7413 20.2196 14.812 20.1682C14.8828 20.1168 14.9388 20.0478 14.9746 19.968C15.0103 19.8881 15.0245 19.8003 15.0157 19.7133L14.7606 17.1949L16.4473 15.3072C16.5056 15.242 16.5458 15.1626 16.5638 15.077C16.5818 14.9914 16.5771 14.9026 16.55 14.8194C16.523 14.7362 16.4746 14.6615 16.4097 14.6029C16.3448 14.5442 16.2656 14.5037 16.1801 14.4852L16.1802 14.4851ZM13.8682 16.6926C13.822 16.7444 13.787 16.8053 13.7656 16.8713C13.7441 16.9373 13.7366 17.0071 13.7435 17.0761L13.9342 18.96L12.2016 18.1965C12.1381 18.1685 12.0695 18.1541 12 18.1541C11.9306 18.1541 11.862 18.1685 11.7985 18.1965L10.066 18.9599L10.2567 17.0761C10.2636 17.0071 10.2561 16.9373 10.2346 16.8713C10.2131 16.8053 10.1782 16.7444 10.1319 16.6926L8.87039 15.281L10.7207 14.8803C10.7886 14.8656 10.8527 14.8369 10.9089 14.7961C10.9651 14.7553 11.0122 14.7033 11.0472 14.6433L12 13.007L12.9529 14.6432C12.9879 14.7032 13.035 14.7553 13.0912 14.7961C13.1474 14.8369 13.2115 14.8656 13.2794 14.8803L15.1297 15.2809L13.8682 16.6926Z" fill="#0077B6"/>
</svg>
