<svg width="32" height="32" viewBox="0 0 32 32" fill="none" xmlns="http://www.w3.org/2000/svg">
<path fill-rule="evenodd" clip-rule="evenodd" d="M16 11.2C18.6509 11.2 20.8 9.05097 20.8 6.4C20.8 3.74903 18.6509 1.6 16 1.6C13.349 1.6 11.2 3.74903 11.2 6.4C11.2 9.05097 13.349 11.2 16 11.2ZM20.8 20.8L11.2 20.8C6.78172 20.8 3.20001 24.3817 3.19998 28.8L28.8 28.8C28.8 24.3817 25.2183 20.8 20.8 20.8ZM16 12.8C19.5346 12.8 22.4 9.93462 22.4 6.4C22.4 2.86538 19.5346 0 16 0C12.4654 0 9.59998 2.86538 9.59998 6.4C9.59998 9.93462 12.4654 12.8 16 12.8ZM11.2 19.2C5.89807 19.2 1.60001 23.4981 1.59998 28.8L1.59998 30.4H30.4V28.8C30.4 23.4981 26.1019 19.2 20.8 19.2L11.2 19.2Z" fill="#181818"/>
</svg>
