<svg width="32" height="32" viewBox="0 0 32 32" fill="none" xmlns="http://www.w3.org/2000/svg">
<path d="M14.6876 0.0437849C13.5939 0.218785 12.6439 0.543785 11.9126 0.981285C10.7814 1.65628 9.75014 2.68128 9.07514 3.79378C8.72514 4.36878 8.41264 5.16878 8.23764 5.90628C8.05639 6.68753 8.01264 8.25003 8.15014 9.03753C8.55014 11.3375 9.93139 13.2875 12.0126 14.4813C14.0626 15.6563 16.7939 15.7563 19.0376 14.7438C19.7876 14.4063 20.4939 13.8875 21.2251 13.1625C22.8626 11.525 23.5814 9.66254 23.4814 7.36253C23.3876 5.31878 22.6939 3.71253 21.2689 2.26878C20.1314 1.11253 18.7126 0.368785 17.1439 0.0937849C16.6501 0.00628487 15.1001 -0.0249651 14.6876 0.0437849ZM17.3626 2.11878C18.3001 2.39378 19.1501 2.91253 19.8939 3.66878C20.6376 4.42503 21.0501 5.11878 21.3564 6.10628C21.5126 6.61253 21.5251 6.73753 21.5251 7.71878C21.5189 8.68753 21.5064 8.83128 21.3564 9.33129C21.0689 10.275 20.6501 10.975 19.9126 11.7375C18.8126 12.8813 17.3501 13.5 15.7876 13.5C14.2376 13.4938 12.9626 12.9875 11.8564 11.9375C10.9939 11.1188 10.4689 10.2875 10.1751 9.26879C10.0501 8.84378 10.0314 8.64378 10.0376 7.68753C10.0376 6.67503 10.0501 6.55003 10.2126 6.03128C10.6376 4.65003 11.6189 3.43128 12.9376 2.65003C13.4251 2.36253 13.9001 2.18128 14.5689 2.03128C15.1751 1.89378 16.7626 1.94378 17.3626 2.11878Z" fill="#333333"/>
<path d="M8.8125 15.4749C7.36875 15.6874 6.275 16.2249 5.35625 17.1687C3.60625 18.9687 2.625 22.1624 2.625 26.0687C2.625 27.7187 2.74375 28.3062 3.26875 29.3437C3.4625 29.7249 3.6625 29.9812 4.09375 30.4124C4.70625 31.0312 5.2375 31.3812 5.98125 31.6437C7.0125 32.0187 6.66875 32.0062 16.225 31.9874L24.9687 31.9687L25.5 31.8062C26.175 31.5937 26.5312 31.4374 26.9812 31.1499C28.025 30.4874 28.7937 29.4374 29.125 28.2499C29.325 27.5062 29.3812 26.6187 29.3125 25.2499C29 19.1249 26.675 15.6749 22.7187 15.4562C21.8687 15.4124 21.8562 15.4124 20.4 16.3499C19.275 17.0687 18.4937 17.4249 17.4562 17.6937C16.675 17.8999 15.275 17.8999 14.5 17.6999C13.3937 17.4124 12.65 17.0687 11.525 16.3374C11.1125 16.0687 10.6062 15.7562 10.3875 15.6437C10.025 15.4562 9.94375 15.4374 9.48125 15.4437C9.2 15.4499 8.9 15.4624 8.8125 15.4749ZM10.4687 17.9812C11.5875 18.6999 12.4187 19.1062 13.3875 19.3999C15.275 19.9687 17.0625 19.9312 18.9437 19.2749C19.8 18.9812 20.4125 18.6624 21.5187 17.9499L22.4437 17.3624L22.825 17.3999C25.1312 17.6624 26.5312 19.5499 27.1562 23.2187C27.3437 24.3062 27.4562 26.3374 27.375 27.0687C27.2062 28.5812 26.2625 29.6312 24.7625 29.9812C24.3125 30.0874 23.7687 30.0937 15.9375 30.0937C6.6625 30.0937 7.25 30.1187 6.31875 29.6749C5.80625 29.4312 5.1625 28.7999 4.925 28.3124C4.625 27.6874 4.5625 27.2999 4.5625 26.0874C4.56875 22.7937 5.3375 20.0812 6.7 18.5937C7.225 18.0187 7.88125 17.6499 8.71875 17.4687C9.425 17.3124 9.44375 17.3187 10.4687 17.9812Z" fill="#333333"/>
</svg>
