<svg xmlns="http://www.w3.org/2000/svg" xmlns:xlink="http://www.w3.org/1999/xlink" aria-hidden="true" style="position: absolute; width: 0; height: 0; overflow: hidden;" version="1.1">
<defs>


<symbol id="bdt-icon" viewBox="0 0 11 14" fill="none">
    <g clip-path="url(#clip0_336_2542)">
    <path fill-rule="evenodd" clip-rule="evenodd" d="M3.4375 4.66667H2.0625C1.68309 4.66667 1.375 4.96542 1.375 5.33333C1.375 5.70125 1.68309 6 2.0625 6H3.4375V10.3333C3.4375 12.3575 5.13133 14 7.21875 14C9.30617 14 11 12.3575 11 10.3333C11 8.6775 9.61383 7.33333 7.90625 7.33333C7.52684 7.33333 7.21875 7.63208 7.21875 8C7.21875 8.36792 7.52684 8.66667 7.90625 8.66667C8.855 8.66667 9.625 9.41333 9.625 10.3333C9.625 11.6213 8.54691 12.6667 7.21875 12.6667C5.89059 12.6667 4.8125 11.6213 4.8125 10.3333V6H9.625C10.0044 6 10.3125 5.70125 10.3125 5.33333C10.3125 4.96542 10.0044 4.66667 9.625 4.66667H4.8125V2.33333C4.8125 1.04542 3.73441 0 2.40625 0C1.07809 0 0 1.04542 0 2.33333C0 2.70125 0.308086 3 0.6875 3C1.06691 3 1.375 2.70125 1.375 2.33333C1.375 1.78125 1.83691 1.33333 2.40625 1.33333C2.97559 1.33333 3.4375 1.78125 3.4375 2.33333V4.66667Z" fill="#181818"/>
    </g>
    <defs>
    <clipPath id="clip0_336_2542">
    <rect width="11" height="14" fill="white"/>
    </clipPath>
    </defs>
</symbol>


<symbol id="bdt-icon-green-light" viewBox="0 0 12 16" fill="none">
    <g clip-path="url(#clip0_211_4230)">
    <path fill-rule="evenodd" clip-rule="evenodd" d="M3.75 5.25H2.25C1.83609 5.25 1.5 5.58609 1.5 6C1.5 6.41391 1.83609 6.75 2.25 6.75H3.75V11.625C3.75 13.9022 5.59781 15.75 7.875 15.75C10.1522 15.75 12 13.9022 12 11.625C12 9.76219 10.4878 8.25 8.625 8.25C8.21109 8.25 7.875 8.58609 7.875 9C7.875 9.41391 8.21109 9.75 8.625 9.75C9.66 9.75 10.5 10.59 10.5 11.625C10.5 13.0739 9.32391 14.25 7.875 14.25C6.42609 14.25 5.25 13.0739 5.25 11.625V6.75H10.5C10.9139 6.75 11.25 6.41391 11.25 6C11.25 5.58609 10.9139 5.25 10.5 5.25H5.25V2.625C5.25 1.17609 4.07391 0 2.625 0C1.17609 0 0 1.17609 0 2.625C0 3.03891 0.336094 3.375 0.75 3.375C1.16391 3.375 1.5 3.03891 1.5 2.625C1.5 2.00391 2.00391 1.5 2.625 1.5C3.24609 1.5 3.75 2.00391 3.75 2.625V5.25Z" fill="#033023"/>
    </g>
    <defs>
    <clipPath id="clip0_211_4230">
    <rect width="12" height="15.75" fill="white"/>
    </clipPath>
    </defs>
</symbol>

<symbol id="bdt-icon-yellow" viewBox="0 0 12 16" fill="none">
    <g clip-path="url(#clip0_211_4257)">
    <path fill-rule="evenodd" clip-rule="evenodd" d="M3.75 5.25H2.25C1.83609 5.25 1.5 5.58609 1.5 6C1.5 6.41391 1.83609 6.75 2.25 6.75H3.75V11.625C3.75 13.9022 5.59781 15.75 7.875 15.75C10.1522 15.75 12 13.9022 12 11.625C12 9.76219 10.4878 8.25 8.625 8.25C8.21109 8.25 7.875 8.58609 7.875 9C7.875 9.41391 8.21109 9.75 8.625 9.75C9.66 9.75 10.5 10.59 10.5 11.625C10.5 13.0739 9.32391 14.25 7.875 14.25C6.42609 14.25 5.25 13.0739 5.25 11.625V6.75H10.5C10.9139 6.75 11.25 6.41391 11.25 6C11.25 5.58609 10.9139 5.25 10.5 5.25H5.25V2.625C5.25 1.17609 4.07391 0 2.625 0C1.17609 0 0 1.17609 0 2.625C0 3.03891 0.336094 3.375 0.75 3.375C1.16391 3.375 1.5 3.03891 1.5 2.625C1.5 2.00391 2.00391 1.5 2.625 1.5C3.24609 1.5 3.75 2.00391 3.75 2.625V5.25Z" fill="#968900"/>
    </g>
    <defs>
    <clipPath id="clip0_211_4257">
    <rect width="12" height="15.75" fill="white"/>
    </clipPath>
    </defs>
</symbol>


<symbol id="bdt-icon-yellow-2" viewBox="0 0 12 16" fill="none">
    <g clip-path="url(#clip0_211_4284)">
    <path fill-rule="evenodd" clip-rule="evenodd" d="M3.75 5.25H2.25C1.83609 5.25 1.5 5.58609 1.5 6C1.5 6.41391 1.83609 6.75 2.25 6.75H3.75V11.625C3.75 13.9022 5.59781 15.75 7.875 15.75C10.1522 15.75 12 13.9022 12 11.625C12 9.76219 10.4878 8.25 8.625 8.25C8.21109 8.25 7.875 8.58609 7.875 9C7.875 9.41391 8.21109 9.75 8.625 9.75C9.66 9.75 10.5 10.59 10.5 11.625C10.5 13.0739 9.32391 14.25 7.875 14.25C6.42609 14.25 5.25 13.0739 5.25 11.625V6.75H10.5C10.9139 6.75 11.25 6.41391 11.25 6C11.25 5.58609 10.9139 5.25 10.5 5.25H5.25V2.625C5.25 1.17609 4.07391 0 2.625 0C1.17609 0 0 1.17609 0 2.625C0 3.03891 0.336094 3.375 0.75 3.375C1.16391 3.375 1.5 3.03891 1.5 2.625C1.5 2.00391 2.00391 1.5 2.625 1.5C3.24609 1.5 3.75 2.00391 3.75 2.625V5.25Z" fill="#90613F"/>
    </g>
    <defs>
    <clipPath id="clip0_211_4284">
    <rect width="12" height="15.75" fill="white"/>
    </clipPath>
    </defs>
</symbol>

<symbol id="bdt-icon-red" viewBox="0 0 12 16" fill="none">
    <g clip-path="url(#clip0_211_4311)">
    <path fill-rule="evenodd" clip-rule="evenodd" d="M3.75 5.25H2.25C1.83609 5.25 1.5 5.58609 1.5 6C1.5 6.41391 1.83609 6.75 2.25 6.75H3.75V11.625C3.75 13.9022 5.59781 15.75 7.875 15.75C10.1522 15.75 12 13.9022 12 11.625C12 9.76219 10.4878 8.25 8.625 8.25C8.21109 8.25 7.875 8.58609 7.875 9C7.875 9.41391 8.21109 9.75 8.625 9.75C9.66 9.75 10.5 10.59 10.5 11.625C10.5 13.0739 9.32391 14.25 7.875 14.25C6.42609 14.25 5.25 13.0739 5.25 11.625V6.75H10.5C10.9139 6.75 11.25 6.41391 11.25 6C11.25 5.58609 10.9139 5.25 10.5 5.25H5.25V2.625C5.25 1.17609 4.07391 0 2.625 0C1.17609 0 0 1.17609 0 2.625C0 3.03891 0.336094 3.375 0.75 3.375C1.16391 3.375 1.5 3.03891 1.5 2.625C1.5 2.00391 2.00391 1.5 2.625 1.5C3.24609 1.5 3.75 2.00391 3.75 2.625V5.25Z" fill="#8F1D20"/>
    </g>
    <defs>
    <clipPath id="clip0_211_4311">
    <rect width="12" height="15.75" fill="white"/>
    </clipPath>
    </defs>
</symbol>

</defs>
</svg>

