<svg xmlns="http://www.w3.org/2000/svg" xmlns:xlink="http://www.w3.org/1999/xlink" aria-hidden="true" style="position: absolute; width: 0; height: 0; overflow: hidden;" version="1.1">
<defs>


<symbol id="bdt-icon" viewBox="0 0 11 14" fill="none">
    <g clip-path="url(#clip0_336_2542)">
    <path fill-rule="evenodd" clip-rule="evenodd" d="M3.4375 4.66667H2.0625C1.68309 4.66667 1.375 4.96542 1.375 5.33333C1.375 5.70125 1.68309 6 2.0625 6H3.4375V10.3333C3.4375 12.3575 5.13133 14 7.21875 14C9.30617 14 11 12.3575 11 10.3333C11 8.6775 9.61383 7.33333 7.90625 7.33333C7.52684 7.33333 7.21875 7.63208 7.21875 8C7.21875 8.36792 7.52684 8.66667 7.90625 8.66667C8.855 8.66667 9.625 9.41333 9.625 10.3333C9.625 11.6213 8.54691 12.6667 7.21875 12.6667C5.89059 12.6667 4.8125 11.6213 4.8125 10.3333V6H9.625C10.0044 6 10.3125 5.70125 10.3125 5.33333C10.3125 4.96542 10.0044 4.66667 9.625 4.66667H4.8125V2.33333C4.8125 1.04542 3.73441 0 2.40625 0C1.07809 0 0 1.04542 0 2.33333C0 2.70125 0.308086 3 0.6875 3C1.06691 3 1.375 2.70125 1.375 2.33333C1.375 1.78125 1.83691 1.33333 2.40625 1.33333C2.97559 1.33333 3.4375 1.78125 3.4375 2.33333V4.66667Z" fill="#181818"/>
    </g>
    <defs>
    <clipPath id="clip0_336_2542">
    <rect width="11" height="14" fill="white"/>
    </clipPath>
    </defs>
</symbol>


<symbol id="bdt-icon-green-light" viewBox="0 0 12 16" fill="none">
    <g clip-path="url(#clip0_211_4230)">
    <path fill-rule="evenodd" clip-rule="evenodd" d="M3.75 5.25H2.25C1.83609 5.25 1.5 5.58609 1.5 6C1.5 6.41391 1.83609 6.75 2.25 6.75H3.75V11.625C3.75 13.9022 5.59781 15.75 7.875 15.75C10.1522 15.75 12 13.9022 12 11.625C12 9.76219 10.4878 8.25 8.625 8.25C8.21109 8.25 7.875 8.58609 7.875 9C7.875 9.41391 8.21109 9.75 8.625 9.75C9.66 9.75 10.5 10.59 10.5 11.625C10.5 13.0739 9.32391 14.25 7.875 14.25C6.42609 14.25 5.25 13.0739 5.25 11.625V6.75H10.5C10.9139 6.75 11.25 6.41391 11.25 6C11.25 5.58609 10.9139 5.25 10.5 5.25H5.25V2.625C5.25 1.17609 4.07391 0 2.625 0C1.17609 0 0 1.17609 0 2.625C0 3.03891 0.336094 3.375 0.75 3.375C1.16391 3.375 1.5 3.03891 1.5 2.625C1.5 2.00391 2.00391 1.5 2.625 1.5C3.24609 1.5 3.75 2.00391 3.75 2.625V5.25Z" fill="#033023"/>
    </g>
    <defs>
    <clipPath id="clip0_211_4230">
    <rect width="12" height="15.75" fill="white"/>
    </clipPath>
    </defs>
</symbol>

<symbol id="bdt-icon-yellow" viewBox="0 0 12 16" fill="none">
    <g clip-path="url(#clip0_211_4257)">
    <path fill-rule="evenodd" clip-rule="evenodd" d="M3.75 5.25H2.25C1.83609 5.25 1.5 5.58609 1.5 6C1.5 6.41391 1.83609 6.75 2.25 6.75H3.75V11.625C3.75 13.9022 5.59781 15.75 7.875 15.75C10.1522 15.75 12 13.9022 12 11.625C12 9.76219 10.4878 8.25 8.625 8.25C8.21109 8.25 7.875 8.58609 7.875 9C7.875 9.41391 8.21109 9.75 8.625 9.75C9.66 9.75 10.5 10.59 10.5 11.625C10.5 13.0739 9.32391 14.25 7.875 14.25C6.42609 14.25 5.25 13.0739 5.25 11.625V6.75H10.5C10.9139 6.75 11.25 6.41391 11.25 6C11.25 5.58609 10.9139 5.25 10.5 5.25H5.25V2.625C5.25 1.17609 4.07391 0 2.625 0C1.17609 0 0 1.17609 0 2.625C0 3.03891 0.336094 3.375 0.75 3.375C1.16391 3.375 1.5 3.03891 1.5 2.625C1.5 2.00391 2.00391 1.5 2.625 1.5C3.24609 1.5 3.75 2.00391 3.75 2.625V5.25Z" fill="#968900"/>
    </g>
    <defs>
    <clipPath id="clip0_211_4257">
    <rect width="12" height="15.75" fill="white"/>
    </clipPath>
    </defs>
</symbol>


<symbol id="bdt-icon-yellow-2" viewBox="0 0 12 16" fill="none">
    <g clip-path="url(#clip0_211_4284)">
    <path fill-rule="evenodd" clip-rule="evenodd" d="M3.75 5.25H2.25C1.83609 5.25 1.5 5.58609 1.5 6C1.5 6.41391 1.83609 6.75 2.25 6.75H3.75V11.625C3.75 13.9022 5.59781 15.75 7.875 15.75C10.1522 15.75 12 13.9022 12 11.625C12 9.76219 10.4878 8.25 8.625 8.25C8.21109 8.25 7.875 8.58609 7.875 9C7.875 9.41391 8.21109 9.75 8.625 9.75C9.66 9.75 10.5 10.59 10.5 11.625C10.5 13.0739 9.32391 14.25 7.875 14.25C6.42609 14.25 5.25 13.0739 5.25 11.625V6.75H10.5C10.9139 6.75 11.25 6.41391 11.25 6C11.25 5.58609 10.9139 5.25 10.5 5.25H5.25V2.625C5.25 1.17609 4.07391 0 2.625 0C1.17609 0 0 1.17609 0 2.625C0 3.03891 0.336094 3.375 0.75 3.375C1.16391 3.375 1.5 3.03891 1.5 2.625C1.5 2.00391 2.00391 1.5 2.625 1.5C3.24609 1.5 3.75 2.00391 3.75 2.625V5.25Z" fill="#90613F"/>
    </g>
    <defs>
    <clipPath id="clip0_211_4284">
    <rect width="12" height="15.75" fill="white"/>
    </clipPath>
    </defs>
</symbol>

<symbol id="bdt-icon-red" viewBox="0 0 12 16" fill="none">
    <g clip-path="url(#clip0_211_4311)">
    <path fill-rule="evenodd" clip-rule="evenodd" d="M3.75 5.25H2.25C1.83609 5.25 1.5 5.58609 1.5 6C1.5 6.41391 1.83609 6.75 2.25 6.75H3.75V11.625C3.75 13.9022 5.59781 15.75 7.875 15.75C10.1522 15.75 12 13.9022 12 11.625C12 9.76219 10.4878 8.25 8.625 8.25C8.21109 8.25 7.875 8.58609 7.875 9C7.875 9.41391 8.21109 9.75 8.625 9.75C9.66 9.75 10.5 10.59 10.5 11.625C10.5 13.0739 9.32391 14.25 7.875 14.25C6.42609 14.25 5.25 13.0739 5.25 11.625V6.75H10.5C10.9139 6.75 11.25 6.41391 11.25 6C11.25 5.58609 10.9139 5.25 10.5 5.25H5.25V2.625C5.25 1.17609 4.07391 0 2.625 0C1.17609 0 0 1.17609 0 2.625C0 3.03891 0.336094 3.375 0.75 3.375C1.16391 3.375 1.5 3.03891 1.5 2.625C1.5 2.00391 2.00391 1.5 2.625 1.5C3.24609 1.5 3.75 2.00391 3.75 2.625V5.25Z" fill="#8F1D20"/>
    </g>
    <defs>
    <clipPath id="clip0_211_4311">
    <rect width="12" height="15.75" fill="white"/>
    </clipPath>
    </defs>
</symbol>

<symbol id="shopping-cart-b"  viewBox="0 0 20 20" fill="none">
    <g clip-path="url(#clip0_367_4369)">
    <path d="M0.394531 0.0822773C0.136719 0.21509 0 0.453371 0 0.773684C0 1.14478 0.0898438 1.27368 0.585938 1.63306C0.8125 1.79321 1.20703 2.14087 1.46484 2.39868C2.33594 3.27759 2.91797 4.26196 3.26172 5.44946C3.48828 6.23853 3.48438 6.17212 3.51562 9.59009C3.54297 12.6487 3.54688 12.7659 3.62891 13.1409C4 14.8206 5.17969 16.1409 6.77734 16.6604C7.4375 16.8752 7.45312 16.8752 11.2695 16.8752C14.2656 16.8752 14.8477 16.8674 15.1406 16.8167C16.8203 16.5237 18.2305 15.2932 18.7617 13.6526C18.8203 13.4807 19.1133 12.3479 19.4219 11.1331L19.9766 8.92603L19.9805 8.26196C19.9805 7.68384 19.9688 7.55884 19.8906 7.2854C19.6914 6.60181 19.3555 6.02759 18.8516 5.52368C18.3594 5.0315 17.8555 4.73071 17.1836 4.52368L16.8945 4.43775L11.7578 4.41431C7.03125 4.39087 6.59766 4.38306 6.32812 4.32056C5.67578 4.16821 5.10547 3.91431 4.61328 3.56275C4.18359 3.25806 4.04688 3.11353 3.76172 2.67603C3.125 1.69946 2.24219 0.793215 1.35156 0.199465C1.11328 0.0393085 1.05859 0.0197773 0.824219 0.00805855C0.617188 0.000246048 0.53125 0.0119648 0.394531 0.0822773ZM5.44922 5.74243C6.23438 5.98462 6.08594 5.97681 11.2852 5.97681C13.9648 5.97681 16.1719 5.99243 16.3516 6.01196C16.7695 6.06275 17.0703 6.17212 17.3984 6.39478C18.0273 6.82446 18.3984 7.52368 18.3984 8.26587C18.3984 8.5315 18.3164 8.90259 17.8125 10.8987C17.3164 12.8792 17.207 13.2698 17.0703 13.5432C16.6602 14.3713 15.957 14.9417 15.0195 15.2034L14.707 15.2932H11.3086C7.4375 15.2932 7.60547 15.3049 6.89453 14.9612C6.22266 14.6331 5.79688 14.2073 5.46875 13.5354C5.13281 12.8401 5.14453 12.9846 5.11328 9.41431C5.09375 6.74243 5.07812 6.2229 5.02734 5.95728C4.94531 5.56665 4.94531 5.57056 5.03125 5.60571C5.06641 5.62134 5.25781 5.68384 5.44922 5.74243Z" fill="#0077B6"/>
    <path d="M7.10938 7.60176C7.03516 7.63301 6.94141 7.69161 6.90234 7.72676C6.60547 7.99629 6.60547 8.64473 6.90234 8.91426C7.11719 9.10958 6.93359 9.10176 11.8164 9.10176C16.2852 9.10176 16.375 9.10176 16.5234 9.02364C17.0742 8.74239 17.0742 7.89864 16.5234 7.61739C16.375 7.53926 16.2891 7.53926 11.8086 7.53926C7.83594 7.54317 7.23047 7.55098 7.10938 7.60176Z" fill="#0077B6"/>
    <path d="M6.69141 18.051C6.19531 18.1408 5.90234 18.5002 5.89844 19.0237C5.89844 19.6448 6.3125 20.0315 6.94531 19.9924C7.29297 19.9729 7.54297 19.8323 7.71484 19.5549C7.82031 19.3791 7.83203 19.3323 7.83203 19.0237C7.83203 18.7151 7.82031 18.6682 7.71484 18.4924C7.50781 18.1643 7.09375 17.9846 6.69141 18.051Z" fill="#0077B6"/>
    <path d="M14.4648 18.051C13.9688 18.1408 13.6758 18.5002 13.6719 19.0237C13.6719 19.6448 14.0859 20.0315 14.7188 19.9924C15.0664 19.9729 15.3164 19.8323 15.4883 19.5549C15.5938 19.3791 15.6055 19.3323 15.6055 19.0237C15.6055 18.7151 15.5938 18.6682 15.4883 18.4924C15.2812 18.1643 14.8672 17.9846 14.4648 18.051Z" fill="#0077B6"/>
    </g>
    <defs>
    <clipPath id="clip0_367_4369">
    <rect width="20" height="20" fill="white" transform="translate(0 0.000244141)"/>
    </clipPath>
    </defs>
</symbol>

<symbol id="shopping-cart-white"  viewBox="0 0 20 20" fill="none">
   <g clip-path="url(#clip0_399_7955)">
    <path d="M0.394531 0.0820333C0.136719 0.214846 0 0.453127 0 0.773439C0 1.14453 0.0898438 1.27344 0.585938 1.63281C0.8125 1.79297 1.20703 2.14063 1.46484 2.39844C2.33594 3.27735 2.91797 4.26172 3.26172 5.44922C3.48828 6.23828 3.48438 6.17188 3.51562 9.58984C3.54297 12.6484 3.54688 12.7656 3.62891 13.1406C4 14.8203 5.17969 16.1406 6.77734 16.6602C7.4375 16.875 7.45312 16.875 11.2695 16.875C14.2656 16.875 14.8477 16.8672 15.1406 16.8164C16.8203 16.5234 18.2305 15.293 18.7617 13.6523C18.8203 13.4805 19.1133 12.3477 19.4219 11.1328L19.9766 8.92578L19.9805 8.26172C19.9805 7.68359 19.9688 7.55859 19.8906 7.28516C19.6914 6.60156 19.3555 6.02735 18.8516 5.52344C18.3594 5.03125 17.8555 4.73047 17.1836 4.52344L16.8945 4.4375L11.7578 4.41406C7.03125 4.39063 6.59766 4.38281 6.32812 4.32031C5.67578 4.16797 5.10547 3.91406 4.61328 3.5625C4.18359 3.25781 4.04688 3.11328 3.76172 2.67578C3.125 1.69922 2.24219 0.792971 1.35156 0.199221C1.11328 0.0390645 1.05859 0.0195333 0.824219 0.00781451C0.617188 2.01166e-06 0.53125 0.0117208 0.394531 0.0820333ZM5.44922 5.74219C6.23438 5.98438 6.08594 5.97656 11.2852 5.97656C13.9648 5.97656 16.1719 5.99219 16.3516 6.01172C16.7695 6.0625 17.0703 6.17188 17.3984 6.39453C18.0273 6.82422 18.3984 7.52344 18.3984 8.26563C18.3984 8.53125 18.3164 8.90234 17.8125 10.8984C17.3164 12.8789 17.207 13.2695 17.0703 13.543C16.6602 14.3711 15.957 14.9414 15.0195 15.2031L14.707 15.293H11.3086C7.4375 15.293 7.60547 15.3047 6.89453 14.9609C6.22266 14.6328 5.79688 14.207 5.46875 13.5352C5.13281 12.8398 5.14453 12.9844 5.11328 9.41406C5.09375 6.74219 5.07812 6.22266 5.02734 5.95703C4.94531 5.56641 4.94531 5.57031 5.03125 5.60547C5.06641 5.6211 5.25781 5.6836 5.44922 5.74219Z" fill="white"/>
    <path d="M7.10938 7.60152C7.03516 7.63277 6.94141 7.69136 6.90234 7.72652C6.60547 7.99605 6.60547 8.64449 6.90234 8.91402C7.11719 9.10933 6.93359 9.10152 11.8164 9.10152C16.2852 9.10152 16.375 9.10152 16.5234 9.02339C17.0742 8.74214 17.0742 7.89839 16.5234 7.61714C16.375 7.53902 16.2891 7.53902 11.8086 7.53902C7.83594 7.54293 7.23047 7.55074 7.10938 7.60152Z" fill="white"/>
    <path d="M6.69141 18.0508C6.19531 18.1406 5.90234 18.5 5.89844 19.0234C5.89844 19.6445 6.3125 20.0312 6.94531 19.9922C7.29297 19.9726 7.54297 19.832 7.71484 19.5547C7.82031 19.3789 7.83203 19.332 7.83203 19.0234C7.83203 18.7148 7.82031 18.6679 7.71484 18.4922C7.50781 18.164 7.09375 17.9844 6.69141 18.0508Z" fill="white"/>
    <path d="M14.4648 18.0508C13.9688 18.1406 13.6758 18.5 13.6719 19.0234C13.6719 19.6445 14.0859 20.0312 14.7188 19.9922C15.0664 19.9726 15.3164 19.832 15.4883 19.5547C15.5938 19.3789 15.6055 19.332 15.6055 19.0234C15.6055 18.7148 15.5938 18.6679 15.4883 18.4922C15.2812 18.164 14.8672 17.9844 14.4648 18.0508Z" fill="white"/>
    </g>
    <defs>
    <clipPath id="clip0_399_7955">
    <rect width="20" height="20" fill="white"/>
    </clipPath>
    </defs>
</symbol>

<symbol id="delivery-track"  viewBox="0 0 24 24" fill="none">
   <path d="M8.25002 18.7502C8.25002 19.1481 8.09198 19.5296 7.81068 19.8109C7.52937 20.0922 7.14784 20.2502 6.75002 20.2502C6.35219 20.2502 5.97066 20.0922 5.68936 19.8109C5.40805 19.5296 5.25002 19.1481 5.25002 18.7502M8.25002 18.7502C8.25002 18.3524 8.09198 17.9709 7.81068 17.6896C7.52937 17.4083 7.14784 17.2502 6.75002 17.2502C6.35219 17.2502 5.97066 17.4083 5.68936 17.6896C5.40805 17.9709 5.25002 18.3524 5.25002 18.7502M8.25002 18.7502H14.25M5.25002 18.7502H3.37502C3.07665 18.7502 2.7905 18.6317 2.57952 18.4207C2.36855 18.2098 2.25002 17.9236 2.25002 17.6252V14.2502M14.25 18.7502H16.5M14.25 18.7502V14.2502M2.25002 14.2502V6.61523C2.24843 6.3414 2.34848 6.07672 2.53081 5.87241C2.71313 5.6681 2.96477 5.53869 3.23702 5.50923C6.57006 5.16326 9.92997 5.16326 13.263 5.50923C13.828 5.56723 14.25 6.04723 14.25 6.61523V7.57324M2.25002 14.2502H14.25M19.5 18.7502C19.5 19.1481 19.342 19.5296 19.0607 19.8109C18.7794 20.0922 18.3978 20.2502 18 20.2502C17.6022 20.2502 17.2207 20.0922 16.9394 19.8109C16.6581 19.5296 16.5 19.1481 16.5 18.7502M19.5 18.7502C19.5 18.3524 19.342 17.9709 19.0607 17.6896C18.7794 17.4083 18.3978 17.2502 18 17.2502C17.6022 17.2502 17.2207 17.4083 16.9394 17.6896C16.6581 17.9709 16.5 18.3524 16.5 18.7502M19.5 18.7502H20.625C21.246 18.7502 21.754 18.2462 21.715 17.6262C21.5141 14.3239 20.4019 11.1418 18.502 8.43323C18.3211 8.17951 18.0848 7.97025 17.8111 7.82126C17.5373 7.67228 17.2333 7.58746 16.922 7.57324H14.25M14.25 7.57324V14.2502" stroke="#0077B6" stroke-width="1.5" stroke-linecap="round" stroke-linejoin="round"/>
</symbol>

<symbol id="shopping-bag"  viewBox="0 0 24 24" fill="none">
   <path d="M15.7502 10.5002V6.00024C15.7502 5.00568 15.3551 4.05186 14.6519 3.34859C13.9486 2.64533 12.9948 2.25024 12.0002 2.25024C11.0057 2.25024 10.0518 2.64533 9.34858 3.34859C8.64532 4.05186 8.25023 5.00568 8.25023 6.00024V10.5002M19.6062 8.50724L20.8692 20.5072C20.9392 21.1722 20.4192 21.7502 19.7502 21.7502H4.25023C4.09244 21.7504 3.93637 21.7174 3.79218 21.6533C3.64798 21.5892 3.51888 21.4955 3.41325 21.3783C3.30763 21.2611 3.22784 21.123 3.17908 20.9729C3.13032 20.8228 3.11368 20.6642 3.13023 20.5072L4.39423 8.50724C4.42339 8.2308 4.55385 7.97495 4.76048 7.789C4.96711 7.60306 5.23526 7.50019 5.51323 7.50024H18.4872C19.0632 7.50024 19.5462 7.93524 19.6062 8.50724ZM8.62523 10.5002C8.62523 10.5997 8.58572 10.6951 8.51539 10.7654C8.44507 10.8357 8.34969 10.8752 8.25023 10.8752C8.15077 10.8752 8.05539 10.8357 7.98506 10.7654C7.91474 10.6951 7.87523 10.5997 7.87523 10.5002C7.87523 10.4008 7.91474 10.3054 7.98506 10.2351C8.05539 10.1648 8.15077 10.1252 8.25023 10.1252C8.34969 10.1252 8.44507 10.1648 8.51539 10.2351C8.58572 10.3054 8.62523 10.4008 8.62523 10.5002ZM16.1252 10.5002C16.1252 10.5997 16.0857 10.6951 16.0154 10.7654C15.9451 10.8357 15.8497 10.8752 15.7502 10.8752C15.6508 10.8752 15.5554 10.8357 15.4851 10.7654C15.4147 10.6951 15.3752 10.5997 15.3752 10.5002C15.3752 10.4008 15.4147 10.3054 15.4851 10.2351C15.5554 10.1648 15.6508 10.1252 15.7502 10.1252C15.8497 10.1252 15.9451 10.1648 16.0154 10.2351C16.0857 10.3054 16.1252 10.4008 16.1252 10.5002Z" stroke="#0077B6" stroke-width="1.5" stroke-linecap="round" stroke-linejoin="round"/>
</symbol>

<symbol id="play-icon" viewBox="0 0 14 14" fill="none">
    <path d="M1.375 1.7109C1.375 0.997567 2.13917 0.5459 2.76417 0.889233L12.3808 6.17923C12.5278 6.26016 12.6504 6.37906 12.7358 6.52351C12.8211 6.66797 12.8662 6.83269 12.8662 7.00048C12.8662 7.16828 12.8211 7.333 12.7358 7.47745C12.6504 7.62191 12.5278 7.7408 12.3808 7.82173L2.76417 13.1109C2.62147 13.1894 2.46079 13.2293 2.29797 13.2268C2.13514 13.2242 1.97578 13.1793 1.83558 13.0965C1.69538 13.0137 1.57918 12.8957 1.49842 12.7543C1.41766 12.6129 1.37512 12.4529 1.375 12.2901V1.7109Z" stroke="#3A4980" stroke-width="1.5" stroke-linecap="round" stroke-linejoin="round"/>
</svg>
</symbol>

</svg>

